# xmcd CD database file
#
# Track frame offsets:
#	150
#	14377
#	33517
#	44475
#	66210
#	77250
#	92632
#
# Disc length: 1426 seconds
#
# Revision: 0
# Processed by: cddbd v1.5.1PL2 Copyright (c) Steve Scherf et al.
# Submitted via: CDex 1.51
#
DISCID=4d059007
DTITLE=FAITH - Cuz believing is doing right・・・・・・
DYEAR=1900
DGENRE=Punk Rock
TTITLE0=No Future
TTITLE1=Talk to u laterz
TTITLE2=Dice
TTITLE3=Rock one's world
TTITLE4=Incompatible
TTITLE5=ZERO
TTITLE6=North Shore Surf Trip
EXTD=
EXTT0=
EXTT1=
EXTT2=
EXTT3=
EXTT4=
EXTT5=
EXTT6=
PLAYORDER=
